<svg width="32" height="32" viewBox="0 0 32 32" fill="none" xmlns="http://www.w3.org/2000/svg">
<path d="M8.92418 23.1931C8.34428 22.6221 8.34428 21.6964 8.92418 21.1254L20.8241 9.40851C21.404 8.83754 22.3442 8.83754 22.9241 9.40851C23.5039 9.97949 23.5039 10.9052 22.9241 11.4762L11.0242 23.1931C10.4443 23.7641 9.50407 23.7641 8.92418 23.1931Z" fill="#D9D9D9"/>
<path d="M9.05446 9.04955C9.63436 8.47858 10.5746 8.47858 11.1544 9.04955L23.0543 20.7664C23.6342 21.3374 23.6342 22.2632 23.0543 22.8341C22.4744 23.4051 21.5343 23.4051 20.9544 22.8341L9.05446 11.1172C8.47457 10.5463 8.47457 9.62053 9.05446 9.04955Z" fill="#D9D9D9"/>
</svg>
