<svg width="101" height="100" viewBox="0 0 101 100" fill="none" xmlns="http://www.w3.org/2000/svg">
<g clip-path="url(#clip0_30_139)">
<path d="M72.7222 77.7778H28.2778C23.8575 77.7778 19.6182 79.5338 16.4926 82.6594C13.367 85.785 11.6111 90.0242 11.6111 94.4445V100H89.3889V94.4445C89.3889 85.2389 81.9305 77.7778 72.7222 77.7778Z" fill="#292F33"/>
<path d="M22.9528 92.6139C23.65 92.6139 24.0667 100 24.0667 100H21.4111C21.4111 100 21.9472 92.6139 22.9528 92.6139ZM31.2861 92.6139C31.9834 92.6139 32.4 100 32.4 100H29.7417C29.7445 100 30.2806 92.6139 31.2861 92.6139ZM69.7472 92.6139C69.05 92.6139 68.6334 100 68.6334 100H71.2889C71.2861 100 70.75 92.6139 69.7472 92.6139ZM78.0806 92.6139C77.3834 92.6139 76.9667 100 76.9667 100H79.6222C79.6195 100 79.0834 92.6139 78.0806 92.6139Z" fill="#66757F"/>
<path d="M34.8889 77.7778C34.8889 77.7778 35.5556 80.1056 37.0278 83.2528C39.325 88.1584 43.6 95.0695 50.5 98.3667C57.4028 95.0695 61.6778 88.1584 63.9722 83.2528C65.4445 80.1056 66.1111 77.7778 66.1111 77.7778H34.8889Z" fill="#77B255"/>
<path d="M50.5 88.8889C56.9695 88.8889 61.2834 86.0556 63.9722 83.2528C65.4445 80.1056 66.1111 77.7778 66.1111 77.7778H34.8889C34.8889 77.7778 35.5556 80.1056 37.0278 83.2528C39.7167 86.0556 44.0306 88.8889 50.5 88.8889Z" fill="#5C913B"/>
<path d="M38.389 78.0722C38.389 80.5555 44.9446 83.6083 50.5001 83.6083C56.0557 83.6083 62.6084 80.5555 62.6084 78.0749V67.4722H38.3862V78.0722H38.389Z" fill="#F7DECE"/>
<path d="M38.3665 72.1472C41.7443 75.9638 45.9332 76.9972 50.4888 76.9972C55.0415 76.9972 59.2277 75.9611 62.6082 72.1472V62.45H38.3638V72.1472H38.3665Z" fill="#EEC2AD"/>
<path d="M32.2889 44.2667C32.2889 48.2889 30.25 51.55 27.7361 51.55C25.2222 51.55 23.1833 48.2889 23.1833 44.2667C23.1833 40.2445 25.2222 36.9806 27.7361 36.9806C30.25 36.9778 32.2889 40.2417 32.2889 44.2667ZM77.8139 44.2667C77.8139 48.2889 75.7778 51.55 73.2611 51.55C70.7472 51.55 68.7083 48.2889 68.7083 44.2667C68.7083 40.2445 70.7445 36.9806 73.2611 36.9806C75.7778 36.9778 77.8139 40.2417 77.8139 44.2667Z" fill="#F7DECE"/>
<path d="M26.825 47.1083C26.825 31.5833 37.425 18.9944 50.5 18.9944C63.575 18.9944 74.1722 31.5833 74.1722 47.1083C74.1722 62.6333 63.575 75.2222 50.5 75.2222C37.425 75.2222 26.825 62.6361 26.825 47.1083Z" fill="#F7DECE"/>
<path d="M50.5001 66.1167C42.8501 66.1167 40.5001 64.1583 40.1084 63.7611C39.7585 63.4289 39.5549 62.9712 39.5424 62.4888C39.5299 62.0064 39.7095 61.5388 40.0418 61.1889C40.374 60.839 40.8317 60.6353 41.3141 60.6228C41.7964 60.6103 42.264 60.79 42.614 61.1222C42.7584 61.225 44.6168 62.475 50.5001 62.475C56.6112 62.475 58.3779 61.1278 58.3945 61.1139C58.5624 60.9475 58.7618 60.8164 58.9811 60.7282C59.2004 60.64 59.4351 60.5966 59.6714 60.6005C59.9077 60.6044 60.1408 60.6555 60.3571 60.7508C60.5733 60.8461 60.7684 60.9838 60.9306 61.1556C61.2672 61.5082 61.4517 61.9789 61.4444 62.4663C61.4371 62.9537 61.2387 63.4187 60.8918 63.7611C60.5001 64.1583 58.1501 66.1167 50.5001 66.1167ZM52.5834 54.8611H48.4168C47.2695 54.8611 46.3334 53.925 46.3334 52.7778C46.3334 51.6306 47.2695 50.6945 48.4168 50.6945H52.5834C53.7306 50.6945 54.6668 51.6306 54.6668 52.7778C54.6668 53.925 53.7306 54.8611 52.5834 54.8611Z" fill="#C1694F"/>
<path d="M39.3889 47.2222C37.8611 47.2222 36.6111 45.9722 36.6111 44.4445V41.6667C36.6111 40.1389 37.8611 38.8889 39.3889 38.8889C40.9166 38.8889 42.1666 40.1389 42.1666 41.6667V44.4445C42.1666 45.9722 40.9166 47.2222 39.3889 47.2222ZM61.6111 47.2222C60.0833 47.2222 58.8333 45.9722 58.8333 44.4445V41.6667C58.8333 40.1389 60.0833 38.8889 61.6111 38.8889C63.1389 38.8889 64.3889 40.1389 64.3889 41.6667V44.4445C64.3889 45.9722 63.1389 47.2222 61.6111 47.2222Z" fill="#662113"/>
<path d="M50.5001 8.33337C66.1889 8.33337 75.9945 21.2445 75.9945 30.8917C75.9945 40.5389 73.2973 44.6917 72.0723 40.5389C69.9445 33.3334 67.1667 33.3334 67.1667 33.3334C67.1667 33.3334 56.3834 37.6056 52.4612 33.7445C52.4612 33.7445 58.3445 45.3223 46.5778 33.7445C46.5778 33.7445 48.5389 41.4639 36.7723 31.8167C36.7723 31.8167 30.889 30.8917 28.9278 40.5389C28.3834 43.2167 25.0056 40.5389 25.0056 30.8917C25.0056 21.2445 32.8501 8.33337 50.5001 8.33337Z" fill="#292F33"/>
<path d="M89.6778 9.75277L50.789 1.41943C50.5977 1.37777 50.3997 1.37777 50.2084 1.41943L11.3195 9.75277C11.0162 9.81754 10.7433 9.98195 10.5443 10.2198C10.3454 10.4577 10.2317 10.7553 10.2215 11.0652C10.2112 11.3752 10.305 11.6796 10.4879 11.9301C10.6708 12.1806 10.9323 12.3626 11.2306 12.4472L24.964 16.3722C24.4306 18.025 24.1112 19.9333 24.1112 22.2222C24.1112 28.5833 33.2362 31.9444 50.5001 31.9444C67.764 31.9444 76.889 28.5833 76.889 22.2222C76.889 19.9333 76.5695 18.025 76.0362 16.3722L89.7723 12.4472C90.0706 12.362 90.3317 12.1795 90.5142 11.9286C90.6966 11.6778 90.7899 11.373 90.779 11.063C90.7681 10.753 90.6538 10.4556 90.4542 10.2181C90.2547 9.98067 89.9813 9.81684 89.6778 9.75277Z" fill="#292F33"/>
<path d="M90.7223 10.7305C90.6202 10.3769 90.3824 10.0781 90.0608 9.89905C89.7392 9.72006 89.3599 9.67544 89.0056 9.77494L50.5001 20.7777L11.9917 9.77494C11.8163 9.72497 11.6327 9.71004 11.4515 9.73101C11.2702 9.75199 11.0949 9.80845 10.9355 9.89719C10.6136 10.0764 10.376 10.3761 10.2751 10.7305C10.1741 11.0849 10.2181 11.4648 10.3973 11.7867C10.5765 12.1087 10.8763 12.3462 11.2306 12.4472L50.1195 23.5583C50.3672 23.6301 50.6302 23.6301 50.8778 23.5583L89.7667 12.4472C89.9426 12.3979 90.107 12.3143 90.2504 12.2011C90.3938 12.088 90.5134 11.9475 90.6022 11.7879C90.691 11.6283 90.7474 11.4527 90.768 11.2712C90.7886 11.0897 90.7731 10.906 90.7223 10.7305Z" fill="#66757F"/>
<path d="M50.3834 9.72783L17.05 12.5056C16.9778 12.5112 15.7778 12.6639 15.7778 13.8889V30.8195C14.9472 31.3362 14.3889 32.8751 14.3889 37.5001C14.3889 44.4028 15.6334 50.0001 17.1667 50.0001C18.7 50.0001 19.9445 44.4028 19.9445 37.5001C19.9445 32.8751 19.3861 31.3362 18.5556 30.8195V15.1667L50.6167 12.4945C50.9754 12.4532 51.3039 12.2739 51.5326 11.9945C51.7613 11.7152 51.8722 11.3578 51.8418 10.998C51.8115 10.6382 51.6423 10.3044 51.37 10.0673C51.0978 9.83024 50.7439 9.70846 50.3834 9.72783Z" fill="#FFCC4D"/>
</g>
<defs>
<clipPath id="clip0_30_139">
<rect width="100" height="100" fill="white" transform="translate(0.5)"/>
</clipPath>
</defs>
</svg>
