<svg width="100" height="100" viewBox="0 0 100 100" fill="none" xmlns="http://www.w3.org/2000/svg">
<path opacity="0.2" d="M26.4492 25.2304L45.1171 36.0116L15.7929 43.7499L12.6054 32.0312C12.502 31.6438 12.4766 31.2398 12.5304 30.8426C12.5842 30.4453 12.7163 30.0627 12.919 29.7168C13.1218 29.371 13.3911 29.0687 13.7114 28.8277C14.0317 28.5866 14.3966 28.4115 14.7851 28.3124L26.4492 25.2304ZM78.0624 14.7499C77.8425 13.9676 77.3229 13.3037 76.6164 12.9022C75.91 12.5007 75.0736 12.394 74.289 12.6054L49.457 19.1601L68.1249 29.9374L81.2499 26.4726L78.0624 14.7499Z" fill="white"/>
<path d="M84.375 40.6249H39.8789L82.0312 29.496C82.4302 29.3909 82.8045 29.2078 83.1323 28.9573C83.4602 28.7068 83.7352 28.3938 83.9415 28.0364C84.1478 27.6791 84.2812 27.2844 84.3342 26.8752C84.3871 26.466 84.3585 26.0504 84.25 25.6523L81.0625 13.9335C80.6238 12.3569 79.5816 11.0166 78.1618 10.2029C76.7419 9.38911 75.0587 9.16745 73.4766 9.58589L13.9883 25.289C13.1962 25.4946 12.4531 25.8562 11.8025 26.3525C11.1519 26.8489 10.6068 27.47 10.1992 28.1796C9.78934 28.8805 9.52453 29.6567 9.42052 30.4619C9.31651 31.2672 9.37542 32.0851 9.59374 32.8671L12.5 43.5781V78.1249C12.5 79.7825 13.1585 81.3723 14.3306 82.5444C15.5027 83.7165 17.0924 84.3749 18.75 84.3749H81.25C82.9076 84.3749 84.4973 83.7165 85.6694 82.5444C86.8415 81.3723 87.5 79.7825 87.5 78.1249V43.7499C87.5 42.9211 87.1708 42.1263 86.5847 41.5402C85.9986 40.9542 85.2038 40.6249 84.375 40.6249ZM75.0625 15.6249L77.4062 24.246L68.5703 26.5898L57.5859 20.246L75.0625 15.6249ZM49.0117 22.4999L59.9961 28.8437L45.5664 32.6523L34.582 26.3164L49.0117 22.4999ZM17.9961 39.9296L15.6523 31.3046L26.0039 28.5703L36.9883 34.9218L17.9961 39.9296ZM81.25 78.1249H18.75V46.8749H81.25V78.1249Z" fill="white"/>
</svg>
